<svg xmlns="http://www.w3.org/2000/svg" xmlns:xlink="http://www.w3.org/1999/xlink" style="margin:auto;background:rgba(NaN, NaN, NaN, 0);display:block;z-index:1;position:relative" width="2430" height="1093" preserveAspectRatio="xMidYMid" viewBox="0 0 2430 1093">
<g transform="translate(1215,546.5) scale(1,1) translate(-1215,-546.5)"><defs>
  <path id="path-u2jkeyk82hb-1" d="M-35 -35L35 -35L35 35L-35 35Z" fill="none" stroke="inherit" stroke-width="1.6666666666666665" transform="scale(0.36000000000000004)"></path>
  <path id="path-u2jkeyk82hb-2" d="M0 -37A37 37 0 0 1 0 37A37 37 0 0 1 0 -37" fill="none" stroke="inherit" stroke-width="1.6666666666666665" transform="scale(0.36000000000000004)"></path>
  <path id="path-u2jkeyk82hb-3" d="M0 -34.641L40 34.641L-40 34.641Z" fill="none" stroke="inherit" stroke-width="1.6666666666666665" transform="scale(0.36000000000000004)"></path>
</defs><path id="path0" d="M 69.09675430810265 141.707159569797
c 0 47.82460373577076 -11.701764743858801 13.736854264529898 -25.4386190083887 13.736854264529898
S 18.21951629132525 189.53176330556775 18.21951629132525 141.707159569797
s 11.701764743858801 -13.736854264529898 25.4386190083887 -13.736854264529898
S 69.09675430810265 93.88255583402625 69.09675430810265 141.707159569797
z" fill="none" stroke="none"></path>
<use xlink:href="#path-u2jkeyk82hb-1" x="0" y="0" stroke="#f5f5f1">
  <animateMotion begin="-9.167735553315431s" dur="11.76470588235294s" keyPoints="1;0" keyTimes="0;1" repeatCount="indefinite" calcMode="linear">
    <mpath xlink:href="#path0"></mpath>
  </animateMotion>
</use><path id="path1" d="M 81.27810886478589 809.2150827637413
c 0 29.37647816096152 -7.187861677682073 8.437924578148522 -15.625786255830594 8.437924578148522
S 50.02653635312471 838.5915609247028 50.02653635312471 809.2150827637413
s 7.187861677682073 -8.437924578148522 15.625786255830594 -8.437924578148522
S 81.27810886478589 779.8386046027798 81.27810886478589 809.2150827637413
z" fill="none" stroke="none"></path>
<use xlink:href="#path-u2jkeyk82hb-2" x="0" y="0" stroke="#e50914">
  <animateMotion begin="-8.127568330731716s" dur="11.76470588235294s" keyPoints="0;1" keyTimes="0;1" repeatCount="indefinite" calcMode="linear">
    <mpath xlink:href="#path1"></mpath>
  </animateMotion>
</use><path id="path2" d="M 100.97352590104306 927.7124436073094
c 0 26.813791739633185 -6.560821383101737 7.7018337975542135 -14.26265518065595 7.7018337975542135
S 72.44821553973115 954.5262353469426 72.44821553973115 927.7124436073094
s 6.560821383101737 -7.7018337975542135 14.26265518065595 -7.7018337975542135
S 100.97352590104306 900.8986518676762 100.97352590104306 927.7124436073094
z" fill="none" stroke="none"></path>
<use xlink:href="#path-u2jkeyk82hb-3" x="0" y="0" stroke="#e50914">
  <animateMotion begin="-6.4861405094101245s" dur="11.76470588235294s" keyPoints="1;0" keyTimes="0;1" repeatCount="indefinite" calcMode="linear">
    <mpath xlink:href="#path2"></mpath>
  </animateMotion>
</use><path id="path3" d="M 161.11536336679617 448.26157606206414
c 0 18.998308038991865 -4.648522179753328 5.45696081971043 -10.105482999463756 5.45696081971043
S 140.90439736786865 467.259884101056 140.90439736786865 448.26157606206414
s 4.648522179753328 -5.45696081971043 10.105482999463756 -5.45696081971043
S 161.11536336679617 429.26326802307227 161.11536336679617 448.26157606206414
z" fill="none" stroke="none"></path>
<use xlink:href="#path-u2jkeyk82hb-1" x="0" y="0" stroke="#e50914">
  <animateMotion begin="-5.012015424997896s" dur="11.76470588235294s" keyPoints="1;0" keyTimes="0;1" repeatCount="indefinite" calcMode="linear">
    <mpath xlink:href="#path3"></mpath>
  </animateMotion>
</use><path id="path4" d="M 199.011407487346 239.0609723049314
c 0 63.192389389958734 -15.461967616692029 18.151005463073254 -33.61297307976528 18.151005463073254
S 131.78546132781543 302.25336169489015 131.78546132781543 239.0609723049314
s 15.461967616692029 -18.151005463073254 33.61297307976528 -18.151005463073254
S 199.011407487346 175.86858291497265 199.011407487346 239.0609723049314
z" fill="none" stroke="none"></path>
<use xlink:href="#path-u2jkeyk82hb-2" x="0" y="0" stroke="#f5f5f1">
  <animateMotion begin="-10.080943932135263s" dur="11.76470588235294s" keyPoints="0;1" keyTimes="0;1" repeatCount="indefinite" calcMode="linear">
    <mpath xlink:href="#path4"></mpath>
  </animateMotion>
</use><path id="path5" d="M 209.73804632637066 452.79341731320596
c 0 60.09732519189231 -14.704664674611946 17.261997661500985 -31.96666233611293 17.261997661500985
S 145.8047216541448 512.8907425050983 145.8047216541448 452.79341731320596
s 14.704664674611946 -17.261997661500985 31.96666233611293 -17.261997661500985
S 209.73804632637066 392.69609212131365 209.73804632637066 452.79341731320596
z" fill="none" stroke="none"></path>
<use xlink:href="#path-u2jkeyk82hb-2" x="0" y="0" stroke="#e50914">
  <animateMotion begin="-4.571838973278281s" dur="11.76470588235294s" keyPoints="1;0" keyTimes="0;1" repeatCount="indefinite" calcMode="linear">
    <mpath xlink:href="#path5"></mpath>
  </animateMotion>
</use><path id="path6" d="M 248.43118918829265 650.1774006705483
c 0 61.97594530935503 -15.164327043778357 17.801601312261553 -32.96592835603991 17.801601312261553
S 182.49933247621283 712.1533459799033 182.49933247621283 650.1774006705483
s 15.164327043778357 -17.801601312261553 32.96592835603991 -17.801601312261553
S 248.43118918829265 588.2014553611933 248.43118918829265 650.1774006705483
z" fill="none" stroke="none"></path>
<use xlink:href="#path-u2jkeyk82hb-1" x="0" y="0" stroke="#f5f5f1">
  <animateMotion begin="-10.139419484826027s" dur="11.76470588235294s" keyPoints="0;1" keyTimes="0;1" repeatCount="indefinite" calcMode="linear">
    <mpath xlink:href="#path6"></mpath>
  </animateMotion>
</use><path id="path7" d="M 263.48686737716156 203.03965386240637
c 0 43.159629558910254 -10.560334892073785 12.39691487330401 -22.957249765377796 12.39691487330401
S 217.572367846406 246.19928342131664 217.572367846406 203.03965386240637
s 10.560334892073785 -12.39691487330401 22.957249765377796 -12.39691487330401
S 263.48686737716156 159.8800243034961 263.48686737716156 203.03965386240637
z" fill="none" stroke="none"></path>
<use xlink:href="#path-u2jkeyk82hb-3" x="0" y="0" stroke="#f5f5f1">
  <animateMotion begin="-9.399291212887286s" dur="11.76470588235294s" keyPoints="1;0" keyTimes="0;1" repeatCount="indefinite" calcMode="linear">
    <mpath xlink:href="#path7"></mpath>
  </animateMotion>
</use><path id="path8" d="M 328.5572518076378 127.77183590934538
c 0 61.511274563642594 -15.050631010252973 17.668132055514363 -32.718763065767334 17.668132055514363
S 263.1197256761031 189.28311047298797 263.1197256761031 127.77183590934538
s 15.050631010252973 -17.668132055514363 32.718763065767334 -17.668132055514363
S 328.5572518076378 66.2605613457028 328.5572518076378 127.77183590934538
z" fill="none" stroke="none"></path>
<use xlink:href="#path-u2jkeyk82hb-3" x="0" y="0" stroke="#221f1f">
  <animateMotion begin="-7.7684863791261165s" dur="11.76470588235294s" keyPoints="1;0" keyTimes="0;1" repeatCount="indefinite" calcMode="linear">
    <mpath xlink:href="#path8"></mpath>
  </animateMotion>
</use><path id="path9" d="M 341.1946642776881 900.9369469480862
c 0 33.26720175850292 -8.139847238782629 9.555472845527435 -17.695320084310065 9.555472845527435
S 305.80402410906794 934.2041487065891 305.80402410906794 900.9369469480862
s 8.139847238782629 -9.555472845527435 17.695320084310065 -9.555472845527435
S 341.1946642776881 867.6697451895833 341.1946642776881 900.9369469480862
z" fill="none" stroke="none"></path>
<use xlink:href="#path-u2jkeyk82hb-3" x="0" y="0" stroke="#221f1f">
  <animateMotion begin="-9.175073872052147s" dur="11.76470588235294s" keyPoints="0;1" keyTimes="0;1" repeatCount="indefinite" calcMode="linear">
    <mpath xlink:href="#path9"></mpath>
  </animateMotion>
</use><path id="path10" d="M 367.0704148443976 616.557871657794
c 0 61.40126972646579 -15.023714933071416 17.636534921431664 -32.66024985450308 17.636534921431664
S 301.7499151353914 677.9591413842597 301.7499151353914 616.557871657794
s 15.023714933071416 -17.636534921431664 32.66024985450308 -17.636534921431664
S 367.0704148443976 555.1566019313282 367.0704148443976 616.557871657794
z" fill="none" stroke="none"></path>
<use xlink:href="#path-u2jkeyk82hb-3" x="0" y="0" stroke="#e50914">
  <animateMotion begin="-7.046166010879793s" dur="11.76470588235294s" keyPoints="0;1" keyTimes="0;1" repeatCount="indefinite" calcMode="linear">
    <mpath xlink:href="#path10"></mpath>
  </animateMotion>
</use><path id="path11" d="M 392.39141045561894 331.7931682592092
c 0 20.798053806684944 -5.088885505890997 5.97390907213291 -11.062794578023906 5.97390907213291
S 370.26582129957114 352.59122206589416 370.26582129957114 331.7931682592092
s 5.088885505890997 -5.97390907213291 11.062794578023906 -5.97390907213291
S 392.39141045561894 310.99511445252426 392.39141045561894 331.7931682592092
z" fill="none" stroke="none"></path>
<use xlink:href="#path-u2jkeyk82hb-2" x="0" y="0" stroke="#f5f5f1">
  <animateMotion begin="-5.853407928317188s" dur="11.76470588235294s" keyPoints="0;1" keyTimes="0;1" repeatCount="indefinite" calcMode="linear">
    <mpath xlink:href="#path11"></mpath>
  </animateMotion>
</use><path id="path12" d="M 418.8479837849359 921.520116783719
c 0 42.37359992679194 -10.368008492725686 12.171140404504067 -22.53914889722975 12.171140404504067
S 373.7696859904763 963.893716710511 373.7696859904763 921.520116783719
s 10.368008492725686 -12.171140404504067 22.53914889722975 -12.171140404504067
S 418.8479837849359 879.1465168569271 418.8479837849359 921.520116783719
z" fill="none" stroke="none"></path>
<use xlink:href="#path-u2jkeyk82hb-2" x="0" y="0" stroke="#221f1f">
  <animateMotion begin="-2.4756037414818928s" dur="11.76470588235294s" keyPoints="0;1" keyTimes="0;1" repeatCount="indefinite" calcMode="linear">
    <mpath xlink:href="#path12"></mpath>
  </animateMotion>
</use><path id="path13" d="M 457.62749141287793 738.2142113266361
c 0 48.94695361433791 -11.976382267337998 14.059231357309825 -26.035613624647823 14.059231357309825
S 405.55626416358234 787.161164940974 405.55626416358234 738.2142113266361
s 11.976382267337998 -14.059231357309825 26.035613624647823 -14.059231357309825
S 457.62749141287793 689.2672577122983 457.62749141287793 738.2142113266361
z" fill="none" stroke="none"></path>
<use xlink:href="#path-u2jkeyk82hb-1" x="0" y="0" stroke="#e50914">
  <animateMotion begin="-10.343872069314594s" dur="11.76470588235294s" keyPoints="0;1" keyTimes="0;1" repeatCount="indefinite" calcMode="linear">
    <mpath xlink:href="#path13"></mpath>
  </animateMotion>
</use><path id="path14" d="M 484.0387567600485 928.8421540101331
c 0 51.062843870029916 -12.494100095858382 14.666987069051148 -27.16108716490953 14.666987069051148
S 429.71658243022944 979.904997880163 429.71658243022944 928.8421540101331
s 12.494100095858382 -14.666987069051148 27.16108716490953 -14.666987069051148
S 484.0387567600485 877.7793101401031 484.0387567600485 928.8421540101331
z" fill="none" stroke="none"></path>
<use xlink:href="#path-u2jkeyk82hb-3" x="0" y="0" stroke="#221f1f">
  <animateMotion begin="-7.379465505521686s" dur="11.76470588235294s" keyPoints="1;0" keyTimes="0;1" repeatCount="indefinite" calcMode="linear">
    <mpath xlink:href="#path14"></mpath>
  </animateMotion>
</use><path id="path15" d="M 523.2735476131505 667.0244603421927
c 0 49.3428164451015 -12.073242321673769 14.172936638486602 -26.24617896016037 14.172936638486602
S 470.78118969282974 716.3672767872941 470.78118969282974 667.0244603421927
s 12.073242321673769 -14.172936638486602 26.24617896016037 -14.172936638486602
S 523.2735476131505 617.6816438970912 523.2735476131505 667.0244603421927
z" fill="none" stroke="none"></path>
<use xlink:href="#path-u2jkeyk82hb-3" x="0" y="0" stroke="#f5f5f1">
  <animateMotion begin="-4.681694217232346s" dur="11.76470588235294s" keyPoints="0;1" keyTimes="0;1" repeatCount="indefinite" calcMode="linear">
    <mpath xlink:href="#path15"></mpath>
  </animateMotion>
</use><path id="path16" d="M 551.4354880769657 1057.5299643316757
c 0 55.44249820458195 -13.565717645801966 15.924972888550137 -29.4906905343521 15.924972888550137
S 492.45410700826153 1112.9724625362576 492.45410700826153 1057.5299643316757
s 13.565717645801966 -15.924972888550137 29.4906905343521 -15.924972888550137
S 551.4354880769657 1002.0874661270938 551.4354880769657 1057.5299643316757
z" fill="none" stroke="none"></path>
<use xlink:href="#path-u2jkeyk82hb-3" x="0" y="0" stroke="#221f1f">
  <animateMotion begin="-1.4303205719709795s" dur="11.76470588235294s" keyPoints="1;0" keyTimes="0;1" repeatCount="indefinite" calcMode="linear">
    <mpath xlink:href="#path16"></mpath>
  </animateMotion>
</use><path id="path17" d="M 573.9895856876506 140.8299710689402
c 0 40.20046263847002 -9.836283411540537 11.546941396156283 -21.38322480769682 11.546941396156283
S 531.2231360722569 181.03043370741022 531.2231360722569 140.8299710689402
s 9.836283411540537 -11.546941396156283 21.38322480769682 -11.546941396156283
S 573.9895856876506 100.6295084304702 573.9895856876506 140.8299710689402
z" fill="none" stroke="none"></path>
<use xlink:href="#path-u2jkeyk82hb-1" x="0" y="0" stroke="#e50914">
  <animateMotion begin="-2.1046467743921777s" dur="11.76470588235294s" keyPoints="0;1" keyTimes="0;1" repeatCount="indefinite" calcMode="linear">
    <mpath xlink:href="#path17"></mpath>
  </animateMotion>
</use><path id="path18" d="M 597.4509688099399 124.46629955212642
c 0 45.98145341833405 -11.250781155549818 13.207438747819355 -24.458219903369173 13.207438747819355
S 548.5345290032017 170.44775297046047 548.5345290032017 124.46629955212642
s 11.250781155549818 -13.207438747819355 24.458219903369173 -13.207438747819355
S 597.4509688099399 78.48484613379236 597.4509688099399 124.46629955212642
z" fill="none" stroke="none"></path>
<use xlink:href="#path-u2jkeyk82hb-1" x="0" y="0" stroke="#221f1f">
  <animateMotion begin="-5.038676867865279s" dur="11.76470588235294s" keyPoints="1;0" keyTimes="0;1" repeatCount="indefinite" calcMode="linear">
    <mpath xlink:href="#path18"></mpath>
  </animateMotion>
</use><path id="path19" d="M 629.6463882311218 293.71690950437744
c 0 36.34698181465323 -8.893410444010897 10.440090521230184 -19.333500965241083 10.440090521230184
S 590.9793863006396 330.0638913190307 590.9793863006396 293.71690950437744
s 8.893410444010897 -10.440090521230184 19.333500965241083 -10.440090521230184
S 629.6463882311218 257.3699276897242 629.6463882311218 293.71690950437744
z" fill="none" stroke="none"></path>
<use xlink:href="#path-u2jkeyk82hb-2" x="0" y="0" stroke="#f5f5f1">
  <animateMotion begin="-8.682478135174016s" dur="11.76470588235294s" keyPoints="1;0" keyTimes="0;1" repeatCount="indefinite" calcMode="linear">
    <mpath xlink:href="#path19"></mpath>
  </animateMotion>
</use><path id="path20" d="M 666.2305969316891 879.1440666314118
c 0 56.52938218675817 -13.831657343568487 16.23716296853692 -30.06882031210541 16.23716296853692
S 606.0929563074782 935.67344881817 606.0929563074782 879.1440666314118
s 13.831657343568487 -16.23716296853692 30.06882031210541 -16.23716296853692
S 666.2305969316891 822.6146844446536 666.2305969316891 879.1440666314118
z" fill="none" stroke="none"></path>
<use xlink:href="#path-u2jkeyk82hb-1" x="0" y="0" stroke="#f5f5f1">
  <animateMotion begin="-7.3165557832929915s" dur="11.76470588235294s" keyPoints="0;1" keyTimes="0;1" repeatCount="indefinite" calcMode="linear">
    <mpath xlink:href="#path20"></mpath>
  </animateMotion>
</use><path id="path21" d="M 671.1236293144717 45.65327872804991
c 0 20.363404829518753 -4.98253522424395 5.849063089329855 -10.831598313573805 5.849063089329855
S 649.4604326873242 66.01668355756867 649.4604326873242 45.65327872804991
s 4.98253522424395 -5.849063089329855 10.831598313573805 -5.849063089329855
S 671.1236293144717 25.28987389853116 671.1236293144717 45.65327872804991
z" fill="none" stroke="none"></path>
<use xlink:href="#path-u2jkeyk82hb-3" x="0" y="0" stroke="#f5f5f1">
  <animateMotion begin="-11.389532413633598s" dur="11.76470588235294s" keyPoints="1;0" keyTimes="0;1" repeatCount="indefinite" calcMode="linear">
    <mpath xlink:href="#path21"></mpath>
  </animateMotion>
</use><path id="path22" d="M 708.6757781334532 1047.2355503557949
c 0 48.859600627312815 -11.95500866412973 14.034140605717512 -25.989149269847243 14.034140605717512
S 656.6974795937588 1096.0951509831077 656.6974795937588 1047.2355503557949
s 11.95500866412973 -14.034140605717512 25.989149269847243 -14.034140605717512
S 708.6757781334532 998.375949728482 708.6757781334532 1047.2355503557949
z" fill="none" stroke="none"></path>
<use xlink:href="#path-u2jkeyk82hb-2" x="0" y="0" stroke="#e50914">
  <animateMotion begin="-8.25608998994879s" dur="11.76470588235294s" keyPoints="1;0" keyTimes="0;1" repeatCount="indefinite" calcMode="linear">
    <mpath xlink:href="#path22"></mpath>
  </animateMotion>
</use><path id="path23" d="M 737.557314921951 683.5167685425021
c 0 36.4772580839905 -8.92528655246576 10.477510300720676 -19.402796853186434 10.477510300720676
S 698.7517212155781 719.9940266264925 698.7517212155781 683.5167685425021
s 8.92528655246576 -10.477510300720676 19.402796853186434 -10.477510300720676
S 737.557314921951 647.0395104585116 737.557314921951 683.5167685425021
z" fill="none" stroke="none"></path>
<use xlink:href="#path-u2jkeyk82hb-1" x="0" y="0" stroke="#f5f5f1">
  <animateMotion begin="-6.0627799755698s" dur="11.76470588235294s" keyPoints="1;0" keyTimes="0;1" repeatCount="indefinite" calcMode="linear">
    <mpath xlink:href="#path23"></mpath>
  </animateMotion>
</use><path id="path24" d="M 795.480780148472 898.8143897226969
c 0 51.68385126529531 -12.64604871384885 14.845361533648655 -27.491410247497505 14.845361533648655
S 740.4979596534771 950.4982409879922 740.4979596534771 898.8143897226969
s 12.64604871384885 -14.845361533648655 27.491410247497505 -14.845361533648655
S 795.480780148472 847.1305384574016 795.480780148472 898.8143897226969
z" fill="none" stroke="none"></path>
<use xlink:href="#path-u2jkeyk82hb-3" x="0" y="0" stroke="#221f1f">
  <animateMotion begin="-6.635753778597316s" dur="11.76470588235294s" keyPoints="0;1" keyTimes="0;1" repeatCount="indefinite" calcMode="linear">
    <mpath xlink:href="#path24"></mpath>
  </animateMotion>
</use><path id="path25" d="M 785.7403113162893 262.1848009071389
c 0 27.052126928123826 -6.619137439860085 7.770291777227057 -14.389429217087141 7.770291777227057
S 756.961452882115 289.2369278352627 756.961452882115 262.1848009071389
s 6.619137439860085 -7.770291777227057 14.389429217087141 -7.770291777227057
S 785.7403113162893 235.13267397901507 785.7403113162893 262.1848009071389
z" fill="none" stroke="none"></path>
<use xlink:href="#path-u2jkeyk82hb-3" x="0" y="0" stroke="#e50914">
  <animateMotion begin="-4.917708747887038s" dur="11.76470588235294s" keyPoints="0;1" keyTimes="0;1" repeatCount="indefinite" calcMode="linear">
    <mpath xlink:href="#path25"></mpath>
  </animateMotion>
</use><path id="path26" d="M 825.6713900065729 738.3816099232048
c 0 39.78181645512338 -9.733848707104656 11.426691960514162 -21.160540667618818 11.426691960514162
S 783.3503086713351 778.1634263783282 783.3503086713351 738.3816099232048
s 9.733848707104656 -11.426691960514162 21.160540667618818 -11.426691960514162
S 825.6713900065729 698.5997934680814 825.6713900065729 738.3816099232048
z" fill="none" stroke="none"></path>
<use xlink:href="#path-u2jkeyk82hb-2" x="0" y="0" stroke="#f5f5f1">
  <animateMotion begin="-8.08284029909793s" dur="11.76470588235294s" keyPoints="1;0" keyTimes="0;1" repeatCount="indefinite" calcMode="linear">
    <mpath xlink:href="#path26"></mpath>
  </animateMotion>
</use><path id="path27" d="M 886.5881148552888 873.6081716079639
c 0 52.68206076878492 -12.890291464702692 15.132081284650988 -28.022372749353682 15.132081284650988
S 830.5433693565814 926.2902323767488 830.5433693565814 873.6081716079639
s 12.890291464702692 -15.132081284650988 28.022372749353682 -15.132081284650988
S 886.5881148552888 820.9261108391789 886.5881148552888 873.6081716079639
z" fill="none" stroke="none"></path>
<use xlink:href="#path-u2jkeyk82hb-3" x="0" y="0" stroke="#221f1f">
  <animateMotion begin="-1.3406494672402531s" dur="11.76470588235294s" keyPoints="1;0" keyTimes="0;1" repeatCount="indefinite" calcMode="linear">
    <mpath xlink:href="#path27"></mpath>
  </animateMotion>
</use><path id="path28" d="M 914.0486964592714 616.4275397182316
c 0 58.08215666048938 -14.21159152331123 16.683172657800142 -30.89476418111137 16.683172657800142
S 852.2591680970487 674.5096963787211 852.2591680970487 616.4275397182316
s 14.21159152331123 -16.683172657800142 30.89476418111137 -16.683172657800142
S 914.0486964592714 558.3453830577422 914.0486964592714 616.4275397182316
z" fill="none" stroke="none"></path>
<use xlink:href="#path-u2jkeyk82hb-2" x="0" y="0" stroke="#221f1f">
  <animateMotion begin="-2.365422907119554s" dur="11.76470588235294s" keyPoints="0;1" keyTimes="0;1" repeatCount="indefinite" calcMode="linear">
    <mpath xlink:href="#path28"></mpath>
  </animateMotion>
</use><path id="path29" d="M 931.0036597930081 592.5925985231094
c 0 44.65089452349113 -10.925218872769106 12.825256937598516 -23.75047581036762 12.825256937598516
S 883.5027081722727 637.2434930466005 883.5027081722727 592.5925985231094
s 10.925218872769106 -12.825256937598516 23.75047581036762 -12.825256937598516
S 931.0036597930081 547.9417039996182 931.0036597930081 592.5925985231094
z" fill="none" stroke="none"></path>
<use xlink:href="#path-u2jkeyk82hb-3" x="0" y="0" stroke="#e50914">
  <animateMotion begin="-6.023454767632217s" dur="11.76470588235294s" keyPoints="0;1" keyTimes="0;1" repeatCount="indefinite" calcMode="linear">
    <mpath xlink:href="#path29"></mpath>
  </animateMotion>
</use><path id="path30" d="M 950.6002956171014 1019.6763537402687
c 0 58.608254021060255 -14.340317473238144 16.834285729453477 -31.17460320269162 16.834285729453477
S 888.2510892117182 1078.284607761329 888.2510892117182 1019.6763537402687
s 14.340317473238144 -16.834285729453477 31.17460320269162 -16.834285729453477
S 950.6002956171014 961.0680997192085 950.6002956171014 1019.6763537402687
z" fill="none" stroke="none"></path>
<use xlink:href="#path-u2jkeyk82hb-3" x="0" y="0" stroke="#e50914">
  <animateMotion begin="-2.984337274667014s" dur="11.76470588235294s" keyPoints="0;1" keyTimes="0;1" repeatCount="indefinite" calcMode="linear">
    <mpath xlink:href="#path30"></mpath>
  </animateMotion>
</use><path id="path31" d="M 1001.9502415184908 946.5075368971333
c 0 51.91496244671961 -12.702597194410115 14.911744532568399 -27.614341726978516 14.911744532568399
S 946.7215580645337 998.4224993438529 946.7215580645337 946.5075368971333
s 12.702597194410115 -14.911744532568399 27.614341726978516 -14.911744532568399
S 1001.9502415184908 894.5925744504136 1001.9502415184908 946.5075368971333
z" fill="none" stroke="none"></path>
<use xlink:href="#path-u2jkeyk82hb-1" x="0" y="0" stroke="#e50914">
  <animateMotion begin="-7.22264276174265s" dur="11.76470588235294s" keyPoints="0;1" keyTimes="0;1" repeatCount="indefinite" calcMode="linear">
    <mpath xlink:href="#path31"></mpath>
  </animateMotion>
</use><path id="path32" d="M 1018.02354285482 964.6980441410973
c 0 34.04917861842231 -8.331182002379926 9.780083220185132 -18.111265222565056 9.780083220185132
S 981.8010124096899 998.7472227595196 981.8010124096899 964.6980441410973
s 8.331182002379926 -9.780083220185132 18.111265222565056 -9.780083220185132
S 1018.02354285482 930.648865522675 1018.02354285482 964.6980441410973
z" fill="none" stroke="none"></path>
<use xlink:href="#path-u2jkeyk82hb-1" x="0" y="0" stroke="#f5f5f1">
  <animateMotion begin="-1.1683834626008336s" dur="11.76470588235294s" keyPoints="0;1" keyTimes="0;1" repeatCount="indefinite" calcMode="linear">
    <mpath xlink:href="#path32"></mpath>
  </animateMotion>
</use><path id="path33" d="M 1046.617159072628 497.11521487552614
c 0 64.55540427447032 -15.795471258646991 18.542509738411688 -34.33798099705868 18.542509738411688
S 977.9411970785108 561.6706191499965 977.9411970785108 497.11521487552614
s 15.795471258646991 -18.542509738411688 34.33798099705868 -18.542509738411688
S 1046.617159072628 432.5598106010558 1046.617159072628 497.11521487552614
z" fill="none" stroke="none"></path>
<use xlink:href="#path-u2jkeyk82hb-3" x="0" y="0" stroke="#e50914">
  <animateMotion begin="-6.162927466523979s" dur="11.76470588235294s" keyPoints="0;1" keyTimes="0;1" repeatCount="indefinite" calcMode="linear">
    <mpath xlink:href="#path33"></mpath>
  </animateMotion>
</use><path id="path34" d="M 1054.8323816912075 530.3922764708981
c 0 27.9715862504563 -6.844111529366967 8.034391795343831 -14.878503324710799 8.034391795343831
S 1025.0753750417857 558.3638627213544 1025.0753750417857 530.3922764708981
s 6.844111529366967 -8.034391795343831 14.878503324710799 -8.034391795343831
S 1054.8323816912075 502.42069022044177 1054.8323816912075 530.3922764708981
z" fill="none" stroke="none"></path>
<use xlink:href="#path-u2jkeyk82hb-3" x="0" y="0" stroke="#221f1f">
  <animateMotion begin="-5.5867113971769955s" dur="11.76470588235294s" keyPoints="0;1" keyTimes="0;1" repeatCount="indefinite" calcMode="linear">
    <mpath xlink:href="#path34"></mpath>
  </animateMotion>
</use><path id="path35" d="M 1103.268208816906 670.8038724072246
c 0 36.45362208105667 -8.919503275152163 10.470721236048194 -19.390224511200355 10.470721236048194
S 1064.4877597945053 707.2574944882813 1064.4877597945053 670.8038724072246
s 8.919503275152163 -10.470721236048194 19.390224511200355 -10.470721236048194
S 1103.268208816906 634.350250326168 1103.268208816906 670.8038724072246
z" fill="none" stroke="none"></path>
<use xlink:href="#path-u2jkeyk82hb-3" x="0" y="0" stroke="#221f1f">
  <animateMotion begin="-7.23444364497411s" dur="11.76470588235294s" keyPoints="1;0" keyTimes="0;1" repeatCount="indefinite" calcMode="linear">
    <mpath xlink:href="#path35"></mpath>
  </animateMotion>
</use><path id="path36" d="M 1139.7959898105698 451.9267451186157
c 0 44.94175898442932 -10.996387836615684 12.908803112548847 -23.90519094916453 12.908803112548847
S 1091.9856079122408 496.86850410304504 1091.9856079122408 451.9267451186157
s 10.996387836615684 -12.908803112548847 23.90519094916453 -12.908803112548847
S 1139.7959898105698 406.9849861341864 1139.7959898105698 451.9267451186157
z" fill="none" stroke="none"></path>
<use xlink:href="#path-u2jkeyk82hb-3" x="0" y="0" stroke="#221f1f">
  <animateMotion begin="-11.739023989016141s" dur="11.76470588235294s" keyPoints="1;0" keyTimes="0;1" repeatCount="indefinite" calcMode="linear">
    <mpath xlink:href="#path36"></mpath>
  </animateMotion>
</use><path id="path37" d="M 1180.3248311354453 156.57204176536035
c 0 57.107554577517185 -13.973125056201011 16.403233761627277 -30.37635881782829 16.403233761627277
S 1119.5721134997887 213.67959634287755 1119.5721134997887 156.57204176536035
s 13.973125056201011 -16.403233761627277 30.37635881782829 -16.403233761627277
S 1180.3248311354453 99.46448718784316 1180.3248311354453 156.57204176536035
z" fill="none" stroke="none"></path>
<use xlink:href="#path-u2jkeyk82hb-3" x="0" y="0" stroke="#221f1f">
  <animateMotion begin="-2.2499020915048678s" dur="11.76470588235294s" keyPoints="0;1" keyTimes="0;1" repeatCount="indefinite" calcMode="linear">
    <mpath xlink:href="#path37"></mpath>
  </animateMotion>
</use><path id="path38" d="M 1196.35596696592 1021.7174722675135
c 0 36.027070815562 -8.815134348488574 10.348201191703978 -19.163335540192552 10.348201191703978
S 1158.029295885535 1057.7445430830755 1158.029295885535 1021.7174722675135
s 8.815134348488574 -10.348201191703978 19.163335540192552 -10.348201191703978
S 1196.35596696592 985.6904014519515 1196.35596696592 1021.7174722675135
z" fill="none" stroke="none"></path>
<use xlink:href="#path-u2jkeyk82hb-1" x="0" y="0" stroke="#e50914">
  <animateMotion begin="-3.048731060444037s" dur="11.76470588235294s" keyPoints="0;1" keyTimes="0;1" repeatCount="indefinite" calcMode="linear">
    <mpath xlink:href="#path38"></mpath>
  </animateMotion>
</use><path id="path39" d="M 1225.411409295508 450.7713851525747
c 0 20.074143323188018 -4.91175847269494 5.765977337511452 -10.677735810206393 5.765977337511452
S 1204.0559376750955 470.8455284757627 1204.0559376750955 450.7713851525747
s 4.91175847269494 -5.765977337511452 10.677735810206393 -5.765977337511452
S 1225.411409295508 430.69724182938666 1225.411409295508 450.7713851525747
z" fill="none" stroke="none"></path>
<use xlink:href="#path-u2jkeyk82hb-2" x="0" y="0" stroke="#221f1f">
  <animateMotion begin="-2.883976509228284s" dur="11.76470588235294s" keyPoints="0;1" keyTimes="0;1" repeatCount="indefinite" calcMode="linear">
    <mpath xlink:href="#path39"></mpath>
  </animateMotion>
</use><path id="path40" d="M 1252.2518250950495 211.01628871469006
c 0 49.12251107596072 -12.019337816458474 14.109657436712123 -26.128995253170597 14.109657436712123
S 1199.9938345887083 260.1387997906508 1199.9938345887083 211.01628871469006
s 12.019337816458474 -14.109657436712123 26.128995253170597 -14.109657436712123
S 1252.2518250950495 161.89377763872935 1252.2518250950495 211.01628871469006
z" fill="none" stroke="none"></path>
<use xlink:href="#path-u2jkeyk82hb-2" x="0" y="0" stroke="#f5f5f1">
  <animateMotion begin="-7.809138670695702s" dur="11.76470588235294s" keyPoints="1;0" keyTimes="0;1" repeatCount="indefinite" calcMode="linear">
    <mpath xlink:href="#path40"></mpath>
  </animateMotion>
</use><path id="path41" d="M 1306.4574238675314 508.10413495040063
c 0 62.395156055278136 -15.266899885865925 17.922012909494786 -33.18891279536071 17.922012909494786
S 1240.07959827681 570.4992910056787 1240.07959827681 508.10413495040063
s 15.266899885865925 -17.922012909494786 33.18891279536071 -17.922012909494786
S 1306.4574238675314 445.7089788951225 1306.4574238675314 508.10413495040063
z" fill="none" stroke="none"></path>
<use xlink:href="#path-u2jkeyk82hb-3" x="0" y="0" stroke="#e50914">
  <animateMotion begin="-3.859627788584165s" dur="11.76470588235294s" keyPoints="1;0" keyTimes="0;1" repeatCount="indefinite" calcMode="linear">
    <mpath xlink:href="#path41"></mpath>
  </animateMotion>
</use><path id="path42" d="M 1314.6600013542427 485.1289004016507
c 0 44.832600677722155 -10.969678889229888 12.877449130835087 -23.847128020064975 12.877449130835087
S 1266.9657453141128 529.9615010793729 1266.9657453141128 485.1289004016507
s 10.969678889229888 -12.877449130835087 23.847128020064975 -12.877449130835087
S 1314.6600013542427 440.29629972392854 1314.6600013542427 485.1289004016507
z" fill="none" stroke="none"></path>
<use xlink:href="#path-u2jkeyk82hb-1" x="0" y="0" stroke="#f5f5f1">
  <animateMotion begin="-3.018327639314972s" dur="11.76470588235294s" keyPoints="1;0" keyTimes="0;1" repeatCount="indefinite" calcMode="linear">
    <mpath xlink:href="#path42"></mpath>
  </animateMotion>
</use><path id="path43" d="M 1342.9674004746225 385.59014848992257
c 0 48.374723988656314 -11.83636863552229 13.8948675286566 -25.73123616417889 13.8948675286566
S 1291.5049281462648 433.96487247857885 1291.5049281462648 385.59014848992257
s 11.83636863552229 -13.8948675286566 25.73123616417889 -13.8948675286566
S 1342.9674004746225 337.2154245012663 1342.9674004746225 385.59014848992257
z" fill="none" stroke="none"></path>
<use xlink:href="#path-u2jkeyk82hb-3" x="0" y="0" stroke="#e50914">
  <animateMotion begin="-5.382528217422983s" dur="11.76470588235294s" keyPoints="1;0" keyTimes="0;1" repeatCount="indefinite" calcMode="linear">
    <mpath xlink:href="#path43"></mpath>
  </animateMotion>
</use><path id="path44" d="M 1374.8840299951687 36.00881193018653
c 0 56.675101244700365 -13.867312006682003 16.2790184426267 -30.146330449308707 16.2790184426267
S 1314.5913690965515 92.6839131748869 1314.5913690965515 36.00881193018653
s 13.867312006682003 -16.2790184426267 30.146330449308707 -16.2790184426267
S 1374.8840299951687 -20.666289314513833 1374.8840299951687 36.00881193018653
z" fill="none" stroke="none"></path>
<use xlink:href="#path-u2jkeyk82hb-2" x="0" y="0" stroke="#e50914">
  <animateMotion begin="-2.840149296779379s" dur="11.76470588235294s" keyPoints="0;1" keyTimes="0;1" repeatCount="indefinite" calcMode="linear">
    <mpath xlink:href="#path44"></mpath>
  </animateMotion>
</use><path id="path45" d="M 1387.9773411790404 1030.9324876088785
c 0 40.89722973698808 -10.006768978199212 11.747076626581684 -21.753845604780896 11.747076626581684
S 1344.4696499694785 1071.8297173458666 1344.4696499694785 1030.9324876088785
s 10.006768978199212 -11.747076626581684 21.753845604780896 -11.747076626581684
S 1387.9773411790404 990.0352578718905 1387.9773411790404 1030.9324876088785
z" fill="none" stroke="none"></path>
<use xlink:href="#path-u2jkeyk82hb-1" x="0" y="0" stroke="#221f1f">
  <animateMotion begin="-11.73305558828335s" dur="11.76470588235294s" keyPoints="0;1" keyTimes="0;1" repeatCount="indefinite" calcMode="linear">
    <mpath xlink:href="#path45"></mpath>
  </animateMotion>
</use><path id="path46" d="M 1413.8253048349359 523.1683051221262
c 0 19.563002750391377 -4.786692162329804 5.619160364474118 -10.405852526803923 5.619160364474118
S 1393.013599781328 542.7313078725176 1393.013599781328 523.1683051221262
s 4.786692162329804 -5.619160364474118 10.405852526803923 -5.619160364474118
S 1413.8253048349359 503.6053023717348 1413.8253048349359 523.1683051221262
z" fill="none" stroke="none"></path>
<use xlink:href="#path-u2jkeyk82hb-2" x="0" y="0" stroke="#e50914">
  <animateMotion begin="-8.344342979194904s" dur="11.76470588235294s" keyPoints="0;1" keyTimes="0;1" repeatCount="indefinite" calcMode="linear">
    <mpath xlink:href="#path46"></mpath>
  </animateMotion>
</use><path id="path47" d="M 1448.5683120677547 685.777330260442
c 0 25.910416450331294 -6.339782748485316 7.442353661265371 -13.782136409750688 7.442353661265371
S 1421.0040392482535 711.6877467107732 1421.0040392482535 685.777330260442
s 6.339782748485316 -7.442353661265371 13.782136409750688 -7.442353661265371
S 1448.5683120677547 659.8669138101108 1448.5683120677547 685.777330260442
z" fill="none" stroke="none"></path>
<use xlink:href="#path-u2jkeyk82hb-3" x="0" y="0" stroke="#e50914">
  <animateMotion begin="-5.091420487802674s" dur="11.76470588235294s" keyPoints="1;0" keyTimes="0;1" repeatCount="indefinite" calcMode="linear">
    <mpath xlink:href="#path47"></mpath>
  </animateMotion>
</use><path id="path48" d="M 1479.861969474897 340.90174297071303
c 0 32.90330654802573 -8.050809048985018 9.450949753156326 -17.501758802141346 9.450949753156326
S 1444.8584518706145 373.80504951873877 1444.8584518706145 340.90174297071303
s 8.050809048985018 -9.450949753156326 17.501758802141346 -9.450949753156326
S 1479.861969474897 307.9984364226873 1479.861969474897 340.90174297071303
z" fill="none" stroke="none"></path>
<use xlink:href="#path-u2jkeyk82hb-1" x="0" y="0" stroke="#e50914">
  <animateMotion begin="-5.964524049569604s" dur="11.76470588235294s" keyPoints="1;0" keyTimes="0;1" repeatCount="indefinite" calcMode="linear">
    <mpath xlink:href="#path48"></mpath>
  </animateMotion>
</use><path id="path49" d="M 1521.1737855986473 909.58071328
c 0 57.70239351953329 -14.11867075477942 16.574091755610628 -30.692762510390047 16.574091755610628
S 1459.788260577867 967.2831067995334 1459.788260577867 909.58071328
s 14.11867075477942 -16.574091755610628 30.692762510390047 -16.574091755610628
S 1521.1737855986473 851.8783197604668 1521.1737855986473 909.58071328
z" fill="none" stroke="none"></path>
<use xlink:href="#path-u2jkeyk82hb-1" x="0" y="0" stroke="#221f1f">
  <animateMotion begin="-3.0685613449036317s" dur="11.76470588235294s" keyPoints="0;1" keyTimes="0;1" repeatCount="indefinite" calcMode="linear">
    <mpath xlink:href="#path49"></mpath>
  </animateMotion>
</use><path id="path50" d="M 1554.8820218391947 407.9103317168605
c 0 43.10604545356247 -10.547223887573795 12.38152369410837 -22.928747581682167 12.38152369410837
S 1509.0245266758302 451.01637717042297 1509.0245266758302 407.9103317168605
s 10.547223887573795 -12.38152369410837 22.928747581682167 -12.38152369410837
S 1554.8820218391947 364.8042862632981 1554.8820218391947 407.9103317168605
z" fill="none" stroke="none"></path>
<use xlink:href="#path-u2jkeyk82hb-2" x="0" y="0" stroke="#221f1f">
  <animateMotion begin="-9.996115353950186s" dur="11.76470588235294s" keyPoints="1;0" keyTimes="0;1" repeatCount="indefinite" calcMode="linear">
    <mpath xlink:href="#path50"></mpath>
  </animateMotion>
</use><path id="path51" d="M 1582.8299505394327 656.7517951749724
c 0 38.262082277211846 -9.361998855062472 10.990172568986383 -20.352171424048855 10.990172568986383
S 1542.1256076913348 695.0138774521843 1542.1256076913348 656.7517951749724
s 9.361998855062472 -10.990172568986383 20.352171424048855 -10.990172568986383
S 1582.8299505394327 618.4897128977605 1582.8299505394327 656.7517951749724
z" fill="none" stroke="none"></path>
<use xlink:href="#path-u2jkeyk82hb-1" x="0" y="0" stroke="#e50914">
  <animateMotion begin="-5.566921787186433s" dur="11.76470588235294s" keyPoints="1;0" keyTimes="0;1" repeatCount="indefinite" calcMode="linear">
    <mpath xlink:href="#path51"></mpath>
  </animateMotion>
</use><path id="path52" d="M 1605.5213695972143 199.87157980809718
c 0 37.365202925688045 -9.142549652030052 10.732558287165714 -19.875107939195765 10.732558287165714
S 1565.771153718823 237.23678273378522 1565.771153718823 199.87157980809718
s 9.142549652030052 -10.732558287165714 19.875107939195765 -10.732558287165714
S 1605.5213695972143 162.50637688240914 1605.5213695972143 199.87157980809718
z" fill="none" stroke="none"></path>
<use xlink:href="#path-u2jkeyk82hb-3" x="0" y="0" stroke="#221f1f">
  <animateMotion begin="-4.325792959036551s" dur="11.76470588235294s" keyPoints="1;0" keyTimes="0;1" repeatCount="indefinite" calcMode="linear">
    <mpath xlink:href="#path52"></mpath>
  </animateMotion>
</use><path id="path53" d="M 1638.5709286213696 523.4953679609087
c 0 63.496281506345355 -15.536324198361097 18.238293624163028 -33.77461782252412 18.238293624163028
S 1571.0216929763214 586.991649467254 1571.0216929763214 523.4953679609087
s 15.536324198361097 -18.238293624163028 33.77461782252412 -18.238293624163028
S 1638.5709286213696 459.9990864545633 1638.5709286213696 523.4953679609087
z" fill="none" stroke="none"></path>
<use xlink:href="#path-u2jkeyk82hb-3" x="0" y="0" stroke="#e50914">
  <animateMotion begin="-0.060571039672579055s" dur="11.76470588235294s" keyPoints="0;1" keyTimes="0;1" repeatCount="indefinite" calcMode="linear">
    <mpath xlink:href="#path53"></mpath>
  </animateMotion>
</use><path id="path54" d="M 1656.3320317721787 33.997491416962674
c 0 40.652143995774395 -9.946801190455435 11.67667965836073 -21.623480848816165 11.67667965836073
S 1613.0850700745464 74.64963541273707 1613.0850700745464 33.997491416962674
s 9.946801190455435 -11.67667965836073 21.623480848816165 -11.67667965836073
S 1656.3320317721787 -6.654652578811721 1656.3320317721787 33.997491416962674
z" fill="none" stroke="none"></path>
<use xlink:href="#path-u2jkeyk82hb-2" x="0" y="0" stroke="#f5f5f1">
  <animateMotion begin="-4.67209046971415s" dur="11.76470588235294s" keyPoints="0;1" keyTimes="0;1" repeatCount="indefinite" calcMode="linear">
    <mpath xlink:href="#path54"></mpath>
  </animateMotion>
</use><path id="path55" d="M 1700.2611279214047 846.5732423408157
c 0 31.203303565824385 -7.6348508724889435 8.962651024226153 -16.597501896715098 8.962651024226153
S 1667.0661241279745 877.7765459066401 1667.0661241279745 846.5732423408157
s 7.6348508724889435 -8.962651024226153 16.597501896715098 -8.962651024226153
S 1700.2611279214047 815.3699387749913 1700.2611279214047 846.5732423408157
z" fill="none" stroke="none"></path>
<use xlink:href="#path-u2jkeyk82hb-2" x="0" y="0" stroke="#f5f5f1">
  <animateMotion begin="-11.683664512028743s" dur="11.76470588235294s" keyPoints="1;0" keyTimes="0;1" repeatCount="indefinite" calcMode="linear">
    <mpath xlink:href="#path55"></mpath>
  </animateMotion>
</use><path id="path56" d="M 1742.6980719279193 39.2232448741391
c 0 56.66940791189666 -13.865918957166203 16.277383123629892 -30.143302080796097 16.277383123629892
S 1682.4114677663272 95.89265278603577 1682.4114677663272 39.2232448741391
s 13.865918957166203 -16.277383123629892 30.143302080796097 -16.277383123629892
S 1742.6980719279193 -17.446163037757564 1742.6980719279193 39.2232448741391
z" fill="none" stroke="none"></path>
<use xlink:href="#path-u2jkeyk82hb-2" x="0" y="0" stroke="#f5f5f1">
  <animateMotion begin="-7.883848796857527s" dur="11.76470588235294s" keyPoints="0;1" keyTimes="0;1" repeatCount="indefinite" calcMode="linear">
    <mpath xlink:href="#path56"></mpath>
  </animateMotion>
</use><path id="path57" d="M 1758.1518972934668 864.4285560244952
c 0 54.320547133231464 -13.291197702811953 15.60271034677925 -28.893908049591204 15.60271034677925
S 1700.3640811942846 918.7491031577266 1700.3640811942846 864.4285560244952
s 13.291197702811953 -15.60271034677925 28.893908049591204 -15.60271034677925
S 1758.1518972934668 810.1080088912637 1758.1518972934668 864.4285560244952
z" fill="none" stroke="none"></path>
<use xlink:href="#path-u2jkeyk82hb-1" x="0" y="0" stroke="#e50914">
  <animateMotion begin="-3.6819668603522806s" dur="11.76470588235294s" keyPoints="0;1" keyTimes="0;1" repeatCount="indefinite" calcMode="linear">
    <mpath xlink:href="#path57"></mpath>
  </animateMotion>
</use><path id="path58" d="M 1775.4067537954809 935.0132557662761
c 0 40.38543241753816 -9.881541974504017 11.600071013548197 -21.481612988052213 11.600071013548197
S 1732.4435278193766 975.3986881838142 1732.4435278193766 935.0132557662761
s 9.881541974504017 -11.600071013548197 21.481612988052213 -11.600071013548197
S 1775.4067537954809 894.6278233487379 1775.4067537954809 935.0132557662761
z" fill="none" stroke="none"></path>
<use xlink:href="#path-u2jkeyk82hb-1" x="0" y="0" stroke="#e50914">
  <animateMotion begin="-4.477832433502269s" dur="11.76470588235294s" keyPoints="1;0" keyTimes="0;1" repeatCount="indefinite" calcMode="linear">
    <mpath xlink:href="#path58"></mpath>
  </animateMotion>
</use><path id="path59" d="M 1823.5114957115811 471.83497609742113
c 0 49.121718998125914 -12.019144010179742 14.109429924993613 -26.128573935173357 14.109429924993613
S 1771.2543478412344 520.956695095547 1771.2543478412344 471.83497609742113
s 12.019144010179742 -14.109429924993613 26.128573935173357 -14.109429924993613
S 1823.5114957115811 422.7132570992952 1823.5114957115811 471.83497609742113
z" fill="none" stroke="none"></path>
<use xlink:href="#path-u2jkeyk82hb-2" x="0" y="0" stroke="#221f1f">
  <animateMotion begin="-7.421548707751404s" dur="11.76470588235294s" keyPoints="0;1" keyTimes="0;1" repeatCount="indefinite" calcMode="linear">
    <mpath xlink:href="#path59"></mpath>
  </animateMotion>
</use><path id="path60" d="M 1845.8960324360492 608.8284020320581
c 0 21.87950912756213 -5.353496914190734 6.284539855789123 -11.638036769979855 6.284539855789123
S 1822.6199588960894 630.7079111596202 1822.6199588960894 608.8284020320581
s 5.353496914190734 -6.284539855789123 11.638036769979855 -6.284539855789123
S 1845.8960324360492 586.948892904496 1845.8960324360492 608.8284020320581
z" fill="none" stroke="none"></path>
<use xlink:href="#path-u2jkeyk82hb-2" x="0" y="0" stroke="#221f1f">
  <animateMotion begin="-4.214399237069239s" dur="11.76470588235294s" keyPoints="0;1" keyTimes="0;1" repeatCount="indefinite" calcMode="linear">
    <mpath xlink:href="#path60"></mpath>
  </animateMotion>
</use><path id="path61" d="M 1878.6420730140264 712.2213078760738
c 0 64.74537436422438 -15.841953301884686 18.59707561525594 -34.439028917140625 18.59707561525594
S 1809.7640151797452 776.9666822402982 1809.7640151797452 712.2213078760738
s 15.841953301884686 -18.59707561525594 34.439028917140625 -18.59707561525594
S 1878.6420730140264 647.4759335118493 1878.6420730140264 712.2213078760738
z" fill="none" stroke="none"></path>
<use xlink:href="#path-u2jkeyk82hb-2" x="0" y="0" stroke="#221f1f">
  <animateMotion begin="-10.248409419208244s" dur="11.76470588235294s" keyPoints="0;1" keyTimes="0;1" repeatCount="indefinite" calcMode="linear">
    <mpath xlink:href="#path61"></mpath>
  </animateMotion>
</use><path id="path62" d="M 1901.4881648817452 281.34701274868706
c 0 39.278672815486104 -9.610739093150855 11.282171978916223 -20.89291107206708 11.282171978916223
S 1859.702342737611 320.6256855641732 1859.702342737611 281.34701274868706
s 9.610739093150855 -11.282171978916223 20.89291107206708 -11.282171978916223
S 1901.4881648817452 242.06833993320095 1901.4881648817452 281.34701274868706
z" fill="none" stroke="none"></path>
<use xlink:href="#path-u2jkeyk82hb-1" x="0" y="0" stroke="#f5f5f1">
  <animateMotion begin="-10.714765614358148s" dur="11.76470588235294s" keyPoints="1;0" keyTimes="0;1" repeatCount="indefinite" calcMode="linear">
    <mpath xlink:href="#path62"></mpath>
  </animateMotion>
</use><path id="path63" d="M 1941.5402226328802 772.3318734001745
c 0 34.03791873013865 -8.328426923331795 9.776848996954719 -18.105275920286516 9.776848996954719
S 1905.3296707923073 806.3697921303132 1905.3296707923073 772.3318734001745
s 8.328426923331795 -9.776848996954719 18.105275920286516 -9.776848996954719
S 1941.5402226328802 738.2939546700358 1941.5402226328802 772.3318734001745
z" fill="none" stroke="none"></path>
<use xlink:href="#path-u2jkeyk82hb-3" x="0" y="0" stroke="#f5f5f1">
  <animateMotion begin="-8.248384928156883s" dur="11.76470588235294s" keyPoints="0;1" keyTimes="0;1" repeatCount="indefinite" calcMode="linear">
    <mpath xlink:href="#path63"></mpath>
  </animateMotion>
</use><path id="path64" d="M 1960.7427731755288 691.1420788356767
c 0 42.93432057982578 -10.505206099319073 12.332198464418044 -22.837404563737117 12.332198464418044
S 1915.0679640480544 734.0763994155025 1915.0679640480544 691.1420788356767
s 10.505206099319073 -12.332198464418044 22.837404563737117 -12.332198464418044
S 1960.7427731755288 648.2077582558509 1960.7427731755288 691.1420788356767
z" fill="none" stroke="none"></path>
<use xlink:href="#path-u2jkeyk82hb-2" x="0" y="0" stroke="#221f1f">
  <animateMotion begin="-2.9157048606281397s" dur="11.76470588235294s" keyPoints="0;1" keyTimes="0;1" repeatCount="indefinite" calcMode="linear">
    <mpath xlink:href="#path64"></mpath>
  </animateMotion>
</use><path id="path65" d="M 2010.685388942364 397.5506181926685
c 0 54.184457123402964 -13.25789908338583 15.563620663105107 -28.82151974649094 15.563620663105107
S 1953.0423494493818 451.73507531607146 1953.0423494493818 397.5506181926685
s 13.25789908338583 -15.563620663105107 28.82151974649094 -15.563620663105107
S 2010.685388942364 343.3661610692655 2010.685388942364 397.5506181926685
z" fill="none" stroke="none"></path>
<use xlink:href="#path-u2jkeyk82hb-2" x="0" y="0" stroke="#221f1f">
  <animateMotion begin="-3.628360547923907s" dur="11.76470588235294s" keyPoints="0;1" keyTimes="0;1" repeatCount="indefinite" calcMode="linear">
    <mpath xlink:href="#path65"></mpath>
  </animateMotion>
</use><path id="path66" d="M 2029.0032986720112 366.94859227424774
c 0 25.030936215396377 -6.124590776107623 7.189736998039384 -13.314327774147008 7.189736998039384
S 2002.3746431237173 391.9795284896441 2002.3746431237173 366.94859227424774
s 6.124590776107623 -7.189736998039384 13.314327774147008 -7.189736998039384
S 2029.0032986720112 341.9176560588514 2029.0032986720112 366.94859227424774
z" fill="none" stroke="none"></path>
<use xlink:href="#path-u2jkeyk82hb-2" x="0" y="0" stroke="#f5f5f1">
  <animateMotion begin="-0.9072613504812894s" dur="11.76470588235294s" keyPoints="0;1" keyTimes="0;1" repeatCount="indefinite" calcMode="linear">
    <mpath xlink:href="#path66"></mpath>
  </animateMotion>
</use><path id="path67" d="M 2077.315528934885 608.3520081460474
c 0 59.67034363492428 -14.600190463864449 17.1393540227974 -31.73954448666185 17.1393540227974
S 2013.8364399615616 668.0223517809717 2013.8364399615616 608.3520081460474
s 14.600190463864449 -17.1393540227974 31.73954448666185 -17.1393540227974
S 2077.315528934885 548.6816645111231 2077.315528934885 608.3520081460474
z" fill="none" stroke="none"></path>
<use xlink:href="#path-u2jkeyk82hb-3" x="0" y="0" stroke="#f5f5f1">
  <animateMotion begin="-8.313778860985078s" dur="11.76470588235294s" keyPoints="0;1" keyTimes="0;1" repeatCount="indefinite" calcMode="linear">
    <mpath xlink:href="#path67"></mpath>
  </animateMotion>
</use><path id="path68" d="M 2093.7358901914463 610.1137714949734
c 0 56.2821031271839 -13.771152892821592 16.166136004616654 -29.937288897438243 16.166136004616654
S 2033.86131239657 666.3958746221573 2033.86131239657 610.1137714949734
s 13.771152892821592 -16.166136004616654 29.937288897438243 -16.166136004616654
S 2093.7358901914463 553.8316683677896 2093.7358901914463 610.1137714949734
z" fill="none" stroke="none"></path>
<use xlink:href="#path-u2jkeyk82hb-3" x="0" y="0" stroke="#e50914">
  <animateMotion begin="-11.606184862504252s" dur="11.76470588235294s" keyPoints="0;1" keyTimes="0;1" repeatCount="indefinite" calcMode="linear">
    <mpath xlink:href="#path68"></mpath>
  </animateMotion>
</use><path id="path69" d="M 2126.8975786975043 854.1364101835932
c 0 52.90603717471965 -12.94509420232502 15.196414933164156 -28.141509135489176 15.196414933164156
S 2070.6145604265257 907.0424473583129 2070.6145604265257 854.1364101835932
s 12.94509420232502 -15.196414933164156 28.141509135489176 -15.196414933164156
S 2126.8975786975043 801.2303730088735 2126.8975786975043 854.1364101835932
z" fill="none" stroke="none"></path>
<use xlink:href="#path-u2jkeyk82hb-1" x="0" y="0" stroke="#221f1f">
  <animateMotion begin="-5.185646617339949s" dur="11.76470588235294s" keyPoints="1;0" keyTimes="0;1" repeatCount="indefinite" calcMode="linear">
    <mpath xlink:href="#path69"></mpath>
  </animateMotion>
</use><path id="path70" d="M 2140.3600123997003 226.59282602114797
c 0 55.19863519198615 -13.506049036337034 15.854927129613042 -29.360976165950078 15.854927129613042
S 2081.6380600678003 281.79146121313414 2081.6380600678003 226.59282602114797
s 13.506049036337034 -15.854927129613042 29.360976165950078 -15.854927129613042
S 2140.3600123997003 171.39419082916183 2140.3600123997003 226.59282602114797
z" fill="none" stroke="none"></path>
<use xlink:href="#path-u2jkeyk82hb-3" x="0" y="0" stroke="#221f1f">
  <animateMotion begin="-9.282422700625986s" dur="11.76470588235294s" keyPoints="1;0" keyTimes="0;1" repeatCount="indefinite" calcMode="linear">
    <mpath xlink:href="#path70"></mpath>
  </animateMotion>
</use><path id="path71" d="M 2170.411116566643 578.0003874624513
c 0 44.20226155998513 -10.81544697744317 12.696394277868071 -23.51184125531124 12.696394277868071
S 2123.387434056021 622.2026490224364 2123.387434056021 578.0003874624513
s 10.81544697744317 -12.696394277868071 23.51184125531124 -12.696394277868071
S 2170.411116566643 533.7981259024662 2170.411116566643 578.0003874624513
z" fill="none" stroke="none"></path>
<use xlink:href="#path-u2jkeyk82hb-3" x="0" y="0" stroke="#e50914">
  <animateMotion begin="-1.5616298850242587s" dur="11.76470588235294s" keyPoints="0;1" keyTimes="0;1" repeatCount="indefinite" calcMode="linear">
    <mpath xlink:href="#path71"></mpath>
  </animateMotion>
</use><path id="path72" d="M 2223.836995169742 718.0846466800853
c 0 50.82827025070051 -12.436704423043741 14.599609540094828 -27.036313963138568 14.599609540094828
S 2169.7643672434647 768.9129169307857 2169.7643672434647 718.0846466800853
s 12.436704423043741 -14.599609540094828 27.036313963138568 -14.599609540094828
S 2223.836995169742 667.2563764293848 2223.836995169742 718.0846466800853
z" fill="none" stroke="none"></path>
<use xlink:href="#path-u2jkeyk82hb-2" x="0" y="0" stroke="#221f1f">
  <animateMotion begin="-3.039030805164924s" dur="11.76470588235294s" keyPoints="0;1" keyTimes="0;1" repeatCount="indefinite" calcMode="linear">
    <mpath xlink:href="#path72"></mpath>
  </animateMotion>
</use><path id="path73" d="M 2239.0528507991376 300.6726039415214
c 0 53.66566606249886 -13.130960845079505 15.41460620944116 -28.545567054520667 15.41460620944116
S 2181.961716690096 354.3382700040203 2181.961716690096 300.6726039415214
s 13.130960845079505 -15.41460620944116 28.545567054520667 -15.41460620944116
S 2239.0528507991376 247.00693787902253 2239.0528507991376 300.6726039415214
z" fill="none" stroke="none"></path>
<use xlink:href="#path-u2jkeyk82hb-3" x="0" y="0" stroke="#e50914">
  <animateMotion begin="-3.9333675287550145s" dur="11.76470588235294s" keyPoints="0;1" keyTimes="0;1" repeatCount="indefinite" calcMode="linear">
    <mpath xlink:href="#path73"></mpath>
  </animateMotion>
</use><path id="path74" d="M 2249.8795481500883 124.90795150754681
c 0 19.957894148034057 -4.883314525582801 5.732586616988506 -10.615901142571307 5.732586616988506
S 2228.647745864946 144.86584565558087 2228.647745864946 124.90795150754681
s 4.883314525582801 -5.732586616988506 10.615901142571307 -5.732586616988506
S 2249.8795481500883 104.95005735951275 2249.8795481500883 124.90795150754681
z" fill="none" stroke="none"></path>
<use xlink:href="#path-u2jkeyk82hb-2" x="0" y="0" stroke="#221f1f">
  <animateMotion begin="-7.450117411464501s" dur="11.76470588235294s" keyPoints="1;0" keyTimes="0;1" repeatCount="indefinite" calcMode="linear">
    <mpath xlink:href="#path74"></mpath>
  </animateMotion>
</use><path id="path75" d="M 2293.2072057450873 785.045704582301
c 0 48.696955434018875 -11.915212499813126 13.987423369345848 -25.902635869158974 13.987423369345848
S 2241.4019340067694 833.7426600163199 2241.4019340067694 785.045704582301
s 11.915212499813126 -13.987423369345848 25.902635869158974 -13.987423369345848
S 2293.2072057450873 736.3487491482822 2293.2072057450873 785.045704582301
z" fill="none" stroke="none"></path>
<use xlink:href="#path-u2jkeyk82hb-1" x="0" y="0" stroke="#f5f5f1">
  <animateMotion begin="-5.087997158041245s" dur="11.76470588235294s" keyPoints="1;0" keyTimes="0;1" repeatCount="indefinite" calcMode="linear">
    <mpath xlink:href="#path75"></mpath>
  </animateMotion>
</use><path id="path76" d="M 2312.5901661273188 36.191737310503925
c 0 42.41670318992666 -10.378555035833116 12.183521129021486 -22.562076164854602 12.183521129021486
S 2267.4660137976093 78.60844050043059 2267.4660137976093 36.191737310503925
s 10.378555035833116 -12.183521129021486 22.562076164854602 -12.183521129021486
S 2312.5901661273188 -6.224965879422733 2312.5901661273188 36.191737310503925
z" fill="none" stroke="none"></path>
<use xlink:href="#path-u2jkeyk82hb-2" x="0" y="0" stroke="#221f1f">
  <animateMotion begin="-3.5093357379976617s" dur="11.76470588235294s" keyPoints="1;0" keyTimes="0;1" repeatCount="indefinite" calcMode="linear">
    <mpath xlink:href="#path76"></mpath>
  </animateMotion>
</use><path id="path77" d="M 2364.399157211514 753.9283510547633
c 0 45.9908359740056 -11.253076887256688 13.210133737214376 -24.463210624471063 13.210133737214376
S 2315.4727359625717 799.9191870287689 2315.4727359625717 753.9283510547633
s 11.253076887256688 -13.210133737214376 24.463210624471063 -13.210133737214376
S 2364.399157211514 707.9375150807577 2364.399157211514 753.9283510547633
z" fill="none" stroke="none"></path>
<use xlink:href="#path-u2jkeyk82hb-3" x="0" y="0" stroke="#e50914">
  <animateMotion begin="-7.390980334024227s" dur="11.76470588235294s" keyPoints="0;1" keyTimes="0;1" repeatCount="indefinite" calcMode="linear">
    <mpath xlink:href="#path77"></mpath>
  </animateMotion>
</use><path id="path78" d="M 2385.9450529321352 1050.07588168924
c 0 45.695673292131964 -11.180856231053564 13.12535296688897 -24.306209197942536 13.12535296688897
S 2337.3326345362498 1095.771554981372 2337.3326345362498 1050.07588168924
s 11.180856231053564 -13.12535296688897 24.306209197942536 -13.12535296688897
S 2385.9450529321352 1004.3802083971082 2385.9450529321352 1050.07588168924
z" fill="none" stroke="none"></path>
<use xlink:href="#path-u2jkeyk82hb-1" x="0" y="0" stroke="#221f1f">
  <animateMotion begin="-0.6647001041996833s" dur="11.76470588235294s" keyPoints="0;1" keyTimes="0;1" repeatCount="indefinite" calcMode="linear">
    <mpath xlink:href="#path78"></mpath>
  </animateMotion>
</use><path id="path79" d="M 2420.1596831522966 379.78955827932754
c 0 27.709446896013837 -6.779971049024662 7.959096448855039 -14.7390674978797 7.959096448855039
S 2390.6815481565372 407.4990051753414 2390.6815481565372 379.78955827932754
s 6.779971049024662 -7.959096448855039 14.7390674978797 -7.959096448855039
S 2420.1596831522966 352.0801113833137 2420.1596831522966 379.78955827932754
z" fill="none" stroke="none"></path>
<use xlink:href="#path-u2jkeyk82hb-1" x="0" y="0" stroke="#f5f5f1">
  <animateMotion begin="-11.519149900371756s" dur="11.76470588235294s" keyPoints="1;0" keyTimes="0;1" repeatCount="indefinite" calcMode="linear">
    <mpath xlink:href="#path79"></mpath>
  </animateMotion>
</use></g>
</svg>